<?xml version="1.0" encoding="utf-8"?>
<!-- Generator: Adobe Illustrator 22.0.1, SVG Export Plug-In . SVG Version: 6.00 Build 0)  -->
<svg version="1.1" id="Capa_1" xmlns="http://www.w3.org/2000/svg" xmlns:xlink="http://www.w3.org/1999/xlink" x="0px" y="0px"
	 viewBox="0 0 58 58" style="enable-background:new 0 0 58 58;" xml:space="preserve">
<style type="text/css">
	.st0{fill:#070707;}
	.st1{fill:#FFFFFF;}
</style>
<circle class="st0" cx="29" cy="29" r="29"/>
<g>
	<polygon class="st1" points="14,29 36,14 36,28.7 36,44 	"/>
	<path class="st1" d="M36,13c0.2,0,0.3,0,0.5,0.1c0.3,0.2,0.5,0.5,0.5,0.9v30c0,0.4-0.2,0.7-0.5,0.9c-0.3,0.2-0.7,0.2-1-0.1l-22-15
		C13.2,29.6,13,29.3,13,29s0.2-0.6,0.4-0.8l22-15C35.6,13.1,35.8,13,36,13z M35,42.1V15.9L15.8,29L35,42.1z"/>
</g>
</svg>
